<?xml version="1.0" encoding="UTF-8"?>
<!DOCTYPE svg PUBLIC "-//W3C//DTD SVG 1.1//EN" "http://www.w3.org/Graphics/SVG/1.1/DTD/svg11.dtd">
<!-- Creator: CorelDRAW X7 -->
<svg xmlns="http://www.w3.org/2000/svg" xml:space="preserve" width="1152px" height="458px" version="1.1" style="shape-rendering:geometricPrecision; text-rendering:geometricPrecision; image-rendering:optimizeQuality; fill-rule:evenodd; clip-rule:evenodd"
viewBox="0 0 1152 458"
 xmlns:xlink="http://www.w3.org/1999/xlink">
 <defs>
  <style type="text/css">
   <![CDATA[
    .fil2 {fill:#BFBDA4}
    .fil0 {fill:#D2AE6D}
    .fil1 {fill:#BFBDA4;fill-rule:nonzero}
   ]]>
  </style>
 </defs>
 <g id="Слой_x0020_1">
  <metadata id="CorelCorpID_0Corel-Layer"/>
  <path class="fil0" d="M127 130c0,0 14,-2 13,4l9 0 15 0 14 0 14 0 13 0 13 -1 8 0c-7,-11 5,-5 5,-5 27,6 29,1 21,-11l-6 0 -12 1 -12 0 -13 1 -14 0 -13 0 -14 1 -15 0 -14 0 -15 0 -9 0c-9,14 12,10 12,10zm119 -24c-2,-2 -3,-4 -5,-6 -2,-3 -4,-6 -7,-10l-7 0 -12 -1 -13 0 -13 -1 -14 0 -14 0 -13 0 -9 -1c-3,7 -6,11 -8,14l13 1 15 0 14 0 13 1 14 0 13 1 12 1 12 1 9 0zm-21 -30c-4,-6 -7,-12 -10,-17l-7 -1 -12 -1 -13 -1 -13 -1 -14 0 0 0c-2,5 -5,9 -7,13l4 0 14 2 13 1 13 1 13 1 13 2 6 1zm-18 -34c-3,-6 -6,-12 -8,-17l-11 -1 -12 -1 -6 -1c-1,1 -1,1 -1,2 -2,4 -3,8 -5,12l11 1 12 2 13 2 7 1zm-17 -36c-3,-7 -6,-10 -12,-2l3 1 9 1zm-64 147c-4,4 -8,9 -12,14l11 0 15 -1 14 -1 15 0 13 -1 14 -1 13 -1 13 -1 12 -1 11 -2 2 0c-4,-4 -7,-8 -10,-11 -1,-1 -2,-2 -3,-3l-7 1 -13 1 -13 2 -14 1 -14 1 -14 1 -15 1 -15 1 -3 0zm-36 33c-5,5 -9,10 -10,14l6 0 15 0 14 -1 15 -1 14 -1 14 -1 14 -2 13 -2 13 -1 12 -3 12 -1 11 -2 11 -2 9 -2 9 -1 2 -1c-4,-5 -8,-10 -12,-14l-10 2 -12 3 -12 2 -13 3 -14 2 -13 2 -14 2 -15 2 -15 1 -15 1 -14 1 -15 0zm15 32c-5,5 -11,10 -17,15l2 0 14 -1 14 -1 14 -1 13 -3 14 -2 13 -2 12 -3 12 -2 12 -3 11 -3 10 -2 9 -3 9 -2 8 -2 6 -1 -7 3 -8 4 -10 4 -10 4 -10 4 -12 4 -12 4 -12 4 -13 4 -13 3 -14 4 -14 3 -14 2 -13 1 -14 2 -14 1 -8 0c-1,1 -2,1 -4,2 -5,3 -8,6 -10,9l5 0 12 0 14 0 13 -1 13 -2 13 -2 13 -2 13 -3 12 -2 12 -3 11 -3 11 -3 11 -4 9 -2 9 -3 8 -3 8 -1 6 -2 -7 3 -8 4 -9 4 -10 5 -10 4 -10 5 -12 4 -12 5 -12 4 -13 4 -13 3 -13 4 -13 3 -6 0c0,1 -1,1 -1,1 0,0 -4,6 -10,14l11 -1 12 -2 11 -3 12 -3 11 -3 11 -3 11 -3 10 -4 9 -3 9 -3 8 -3 8 -3 7 -2 5 -2 -6 4 -8 4 -8 4 -9 5 -9 5 -10 5 -11 5 -11 4 -11 5 -12 4 -11 4 -12 3 -12 3 -13 2 -8 1c-5,5 -9,10 -14,16l3 0 11 -2 10 -1 11 -3 10 -2 11 -3 10 -3 9 -3 10 -3 8 -4 9 -3 8 -3 7 -3 6 -2 6 -2 5 -2 -5 3 -7 5 -7 4 -8 4 -9 5 -9 5 -9 5 -10 4 -10 5 -10 4 -10 4 -11 3 -11 3 -10 2 -11 1 -10 1 -5 0c-5,5 -10,10 -15,14l8 0 8 0 9 0 9 -1 9 -2 9 -2 9 -2 8 -3 8 -3 9 -2 7 -3 8 -4 7 -2 6 -3 6 -3 6 -2 5 -1 4 -2 -5 3 -6 4 -6 4 -7 5 -7 4 -8 5 -7 4 -9 4 -8 4 -9 4 -8 4 -10 3 -8 3 -9 2 -9 1 -8 1 -9 0 -8 -1 -8 -1 -4 -1c-6,8 3,10 16,10 21,0 72,-13 86,-18 11,-3 14,-1 6,7 -5,5 -11,12 -14,15 -12,9 -6,17 4,15 3,0 11,-1 21,-8 21,-15 48,-33 48,-20l0 75 35 0 0 -75c0,0 -2,-19 24,5 0,0 7,5 18,8 4,1 10,-1 7,-7 -8,-15 0,-15 4,-14 23,7 65,17 74,19 7,1 46,5 9,-22 -37,-28 -80,-79 -80,-79 -14,-16 5,-10 25,-4 8,2 15,4 22,4 22,0 -39,-45 -52,-61 -13,-17 22,-6 22,-6 26,8 10,-17 -11,-44l-5 2 -10 4 -10 3 -11 4 -11 3 -13 3 -13 4 -13 3 -14 3 -13 2 -15 2 -14 3 -14 1 -5 0z"/>
  <path class="fil1" d="M463 207l0 -119 33 0 0 246 -33 0 0 -49 -35 -112 0 161 -33 0 0 -246 33 0 35 119zm101 127c-26,0 -39,-14 -39,-42l0 -161c0,-29 13,-43 39,-43l31 0c27,0 40,14 40,43l0 161c0,28 -13,42 -40,42l-31 0zm8 -30l17 0c9,0 13,-5 13,-14l0 -157c0,-10 -5,-15 -15,-15l-15 0c-10,0 -15,5 -15,15l0 157c0,9 5,14 15,14zm168 -96c18,5 27,14 27,28l0 61c0,25 -12,37 -37,37l-66 0 0 -246 56 0c29,0 44,15 44,45l0 47c0,14 -8,23 -24,26l0 2zm-43 96l24 0c9,0 13,-3 13,-10l0 -55c0,-11 -6,-17 -19,-17l-18 0 0 82zm0 -112l15 0c13,0 19,-6 19,-18l0 -38c0,-12 -5,-18 -15,-18l-19 0 0 74zm97 142l0 -246 33 0 0 246 -33 0zm142 0l-78 0 0 -246 33 0 0 216 45 0 0 30zm19 0l0 -246 32 0 0 246 -32 0zm126 -180l0 -21c0,-10 -5,-15 -14,-15l-5 0c-10,0 -14,5 -14,15l0 41c0,4 0,7 2,9 2,1 5,3 9,6l31 17c7,4 12,7 15,9 3,2 5,5 6,8 2,3 3,9 3,17l0 53c0,27 -13,41 -40,41l-20 0c-26,0 -39,-15 -39,-45l0 -13 33 0 0 14c0,9 4,14 14,14l6 0c9,0 13,-5 13,-14l0 -42c0,-4 -1,-8 -3,-9 -1,-2 -4,-4 -9,-6l-31 -18c-6,-3 -11,-6 -15,-9 -3,-2 -5,-6 -6,-10 -2,-4 -2,-9 -2,-15l0 -50c0,-29 13,-43 39,-43l21 0c26,0 39,14 39,43l0 23 -33 0z"/>
  <path class="fil0" d="M1101 384c0,-1 0,-2 -1,-3 0,0 0,-1 -1,-2 0,-1 -1,-2 -1,-3 0,-1 0,-2 -1,-3 0,-1 0,-2 0,-3l0 0c0,1 -1,2 -1,3 0,1 0,2 -1,3 0,1 0,2 -1,3 0,1 0,2 -1,2 0,1 0,2 -1,3l9 0zm5 13l-2 -6 -14 0 -2 6 -8 0c2,-6 4,-12 6,-18 3,-5 5,-11 7,-17l7 0c3,6 5,12 7,17 2,6 5,12 7,18l-8 0zm-51 -7l1 0c0,0 0,0 0,-1 0,0 0,-2 1,-3 1,-4 2,-8 3,-12 2,-4 3,-8 4,-12l11 0 0 35 -8 0 0 -18c0,-2 0,-3 0,-4 0,-1 0,-1 1,-2l-1 0c0,1 0,2 0,2 0,1 0,1 0,1 -1,0 -1,1 -1,1 0,0 0,0 0,0 -1,4 -2,7 -3,10 -1,3 -2,6 -3,10l-9 0 -6 -20c0,-1 -1,-2 -1,-2 0,-1 0,-2 0,-2l0 0 0 2c0,0 0,1 0,2 0,0 0,1 0,2l0 18 -8 0 0 -35 11 0c1,4 2,8 4,12 1,4 2,8 4,12 0,1 0,3 0,3 0,1 1,1 1,1l-1 0zm-41 0c1,0 3,0 4,0 1,-1 1,-1 2,-2 1,-1 1,-2 2,-3 0,-2 0,-3 0,-6 0,-2 0,-3 0,-5 -1,-1 -1,-2 -2,-3 -1,-1 -1,-1 -2,-2 -1,0 -3,0 -4,0 -2,0 -3,0 -4,0 -1,1 -2,1 -2,2 -1,1 -1,2 -2,3 0,2 0,3 0,5 0,3 0,4 0,6 1,1 1,2 2,3 0,1 1,1 2,2 1,0 2,0 4,0zm0 7c-3,0 -5,0 -7,-1 -2,0 -4,-1 -5,-3 -2,-1 -3,-3 -3,-5 -1,-2 -1,-5 -1,-9 0,-3 0,-6 1,-8 0,-2 1,-4 3,-5 1,-2 3,-3 5,-3 2,-1 4,-1 7,-1 3,0 5,0 7,1 2,0 4,1 5,3 1,1 2,3 3,5 1,2 1,5 1,8 0,4 0,7 -1,9 -1,2 -2,4 -3,5 -1,2 -3,3 -5,3 -2,1 -4,1 -7,1zm-40 -16c0,2 0,4 -1,6 -1,1 -2,2 -2,3l12 0 0 -21 -8 0 -1 12zm12 22l0 -6 -18 0 0 6 -8 0 0 -13 2 0c0,0 1,0 1,-1 0,0 1,-1 1,-1 1,-1 1,-2 2,-3 0,-1 0,-3 0,-4l1 -19 24 0 0 28 3 0 0 13 -8 0zm-60 -13c2,0 3,0 4,0 1,-1 2,-1 2,-2 1,-1 1,-2 2,-3 0,-2 0,-3 0,-6 0,-2 0,-3 0,-5 -1,-1 -1,-2 -2,-3 0,-1 -1,-1 -2,-2 -1,0 -2,0 -4,0 -1,0 -3,0 -4,0 -1,1 -1,1 -2,2 -1,1 -1,2 -2,3 0,2 0,3 0,5 0,3 0,4 0,6 1,1 1,2 2,3 1,1 1,1 2,2 1,0 3,0 4,0zm0 7c-3,0 -5,0 -7,-1 -2,0 -4,-1 -5,-3 -1,-1 -2,-3 -3,-5 -1,-2 -1,-5 -1,-9 0,-3 0,-6 1,-8 1,-2 2,-4 3,-5 1,-2 3,-3 5,-3 2,-1 4,-1 7,-1 3,0 5,0 7,1 2,0 4,1 5,3 2,1 3,3 3,5 1,2 1,5 1,8 0,4 0,7 -1,9 0,2 -1,4 -3,5 -1,2 -3,3 -5,3 -2,1 -4,1 -7,1zm-34 0l-8 0 0 -35 22 0 0 7 -14 0 0 28zm-39 0l0 -35 24 0 0 7 -16 0 0 7 13 0 0 7 -13 0 0 7 16 0 0 7 -24 0zm-8 -35l0 35 -39 0 0 -35 8 0 0 28 8 0 0 -28 7 0 0 28 8 0 0 -28 8 0zm-56 22c0,-1 -1,-2 -1,-3 0,0 -1,-1 -1,-2 0,-1 -1,-2 -1,-3 0,-1 -1,-2 -1,-3 0,-1 0,-2 0,-3l-1 0c0,1 0,2 0,3 0,1 -1,2 -1,3 0,1 -1,2 -1,3 0,1 -1,2 -1,2 0,1 -1,2 -1,3l9 0zm5 13l-3 -6 -13 0 -3 6 -8 0c3,-6 5,-12 7,-18 2,-5 5,-11 7,-17l7 0c2,6 5,12 7,17 2,6 4,12 7,18l-8 0zm-42 -21c1,0 2,0 3,-1 0,0 1,-1 1,-3 0,0 -1,-1 -1,-1 0,-1 0,-1 0,-1 0,0 -1,-1 -1,-1 -1,0 -1,0 -2,0l-7 0 0 7 7 0zm0 14c1,0 2,0 2,0 1,-1 1,-1 2,-1 0,0 0,-1 0,-1 1,-1 1,-1 1,-2 0,-1 -1,-2 -1,-2 -1,-1 -2,-1 -4,-1l-7 0 0 7 7 0zm-15 7l0 -35 15 0c4,0 7,1 9,2 2,2 2,4 2,8 0,2 0,4 -1,5 -1,1 -3,2 -5,2 2,1 4,2 6,3 1,1 1,3 1,5 0,2 0,3 0,5 -1,1 -1,2 -3,3 -1,0 -2,1 -3,1 -2,0 -4,1 -6,1l-15 0zm-30 -18l0 -10 -6 0c-2,0 -3,0 -4,1 -1,1 -1,2 -1,4 0,2 0,3 1,4 1,1 2,1 4,1l6 0zm-21 18l8 -12c-2,-1 -4,-2 -5,-4 0,-2 -1,-4 -1,-7 0,-2 0,-4 1,-6 0,-1 1,-2 2,-3 1,-1 2,-2 4,-2 1,0 3,-1 5,-1l15 0 0 35 -8 0 0 -11 -5 0 -7 11 -9 0zm-29 -35l24 0 0 35 -8 0 0 -28 -9 0c0,2 0,5 0,7 0,2 0,4 0,7 -1,2 -1,4 -1,6 0,2 -1,3 -2,4 -1,1 -2,2 -3,3 -2,0 -4,1 -7,1l0 -7c1,0 2,0 3,-1 0,0 1,0 1,-1 0,0 0,-1 1,-2 0,-1 0,-2 0,-3l1 -21zm-28 19c0,2 -1,4 -2,6 0,1 -1,2 -2,3l13 0 0 -21 -8 0 -1 12zm12 22l0 -6 -18 0 0 6 -8 0 0 -13 2 0c0,0 0,0 1,-1 0,0 0,-1 1,-1 0,-1 1,-2 1,-3 1,-1 1,-3 1,-4l1 -19 24 0 0 28 3 0 0 13 -8 0zm-63 -22l0 9 7 0c1,0 3,0 3,-1 1,-1 1,-2 1,-4 0,-1 0,-3 -1,-3 0,-1 -2,-1 -3,-1l-7 0zm0 -7l7 0c2,0 4,0 6,0 1,1 2,2 3,2 1,1 2,3 3,4 0,1 0,3 0,5 0,3 0,4 0,6 -1,1 -2,2 -3,3 -1,1 -2,2 -3,2 -2,0 -4,1 -6,1l-15 0 0 -35 8 0 0 12zm-40 -12l24 0 0 35 -8 0 0 -28 -8 0c0,2 -1,5 -1,7 0,2 0,4 0,7 0,2 -1,4 -1,6 0,2 -1,3 -1,4 -1,1 -2,2 -4,3 -2,0 -4,1 -6,1l0 -7c1,0 2,0 2,-1 1,0 1,0 1,-1 1,0 1,-1 1,-2 0,-1 0,-2 0,-3l1 -21zm-33 35l0 -35 24 0 0 7 -16 0 0 7 14 0 0 7 -14 0 0 7 16 0 0 7 -24 0zm-32 -35l24 0 0 7 -16 0 0 6 5 0c3,0 5,0 6,1 2,0 3,1 4,2 2,0 2,2 3,3 0,1 1,3 1,5 0,2 -1,4 -1,5 -1,1 -1,2 -3,3 -1,1 -2,2 -4,2 -1,0 -3,1 -6,1l-13 0 0 -35zm8 20l0 8 5 0c2,0 4,0 5,-1 0,-1 1,-2 1,-3 0,-1 -1,-3 -1,-3 -1,-1 -3,-1 -5,-1l-5 0zm-39 15l0 -35 24 0 0 7 -16 0 0 7 14 0 0 7 -14 0 0 7 16 0 0 7 -24 0zm-28 -7l0 0c0,0 0,0 1,-1 0,0 0,-2 0,-3 2,-4 3,-8 4,-12 1,-4 3,-8 4,-12l11 0 0 35 -8 0 0 -18c0,-2 0,-3 0,-4 0,-1 0,-1 0,-2l0 0c0,1 0,2 0,2 -1,1 -1,1 -1,1 0,0 0,1 0,1 0,0 0,0 0,0 -1,4 -2,7 -3,10 -1,3 -2,6 -3,10l-9 0 -6 -20c-1,-1 -1,-2 -1,-2 0,-1 0,-2 0,-2l-1 0 1 2c0,0 0,1 0,2 0,0 0,1 0,2l0 18 -8 0 0 -35 11 0c1,4 2,8 4,12 1,4 2,8 3,12 1,1 1,3 1,3 0,1 0,1 0,1l0 0z"/>
  <path class="fil2" d="M1139 89c7,0 13,6 13,13 0,7 -6,13 -13,13 -7,0 -13,-6 -13,-13 0,-7 6,-13 13,-13zm0 3c6,0 10,4 10,10 0,6 -4,10 -10,10 -6,0 -10,-4 -10,-10 0,-6 4,-10 10,-10zm-5 16l0 -13 5 0c2,0 3,1 3,1 1,0 2,0 2,1 0,1 1,1 1,2 0,1 -1,2 -1,3 -1,0 -2,1 -3,1 1,0 1,0 1,1 1,0 1,1 2,2l2 2 -4 0 -1 -2c-1,-1 -2,-2 -2,-2 0,-1 0,-1 -1,-1 0,0 0,0 -1,0l0 0 0 5 -3 0zm3 -7l1 0c2,0 3,0 3,0 0,0 0,-1 1,-1 0,0 0,0 0,-1 0,0 0,-1 -1,-1 0,0 0,0 -1,0 0,0 0,0 -1,0l-2 0 0 3z"/>
 </g>
</svg>
